<svg width="122" height="32" viewBox="0 0 122 32" fill="none" xmlns="http://www.w3.org/2000/svg">
<g id="logo">
<g id="Group">
<path id="Vector" d="M114.487 17.3279H41.2461L48.7946 5.41296H122.001L114.487 17.3279Z" fill="#F26D25"/>
<g id="Group_2">
<path id="Vector_2" d="M51.821 10.8257H51.209V9.94058H51.821V9.60015C51.821 8.74909 52.229 8.34058 53.2491 8.34058C53.4531 8.34058 53.7251 8.37462 53.8612 8.40866V9.19164C53.7591 9.19164 53.6571 9.1576 53.5211 9.1576C53.1131 9.1576 52.9431 9.32781 52.9431 9.63419V9.94058H53.8272V10.8257H52.9771V14.3321H51.821V10.8257Z" fill="white"/>
<path id="Vector_3" d="M54.6094 12.1191C54.6094 10.6893 55.4594 9.83826 56.7855 9.83826C58.1116 9.83826 58.9617 10.6893 58.9617 12.1191C58.9617 13.5489 58.1116 14.4 56.7855 14.4C55.4594 14.4 54.6094 13.5489 54.6094 12.1191ZM57.7376 12.1191C57.7376 11.234 57.3636 10.7574 56.7855 10.7574C56.2075 10.7574 55.8335 11.268 55.8335 12.1191C55.8335 13.0042 56.2075 13.4808 56.7855 13.4808C57.3636 13.5149 57.7376 13.0042 57.7376 12.1191Z" fill="white"/>
<path id="Vector_4" d="M59.9824 9.9404H61.1385V10.7234H61.1725C61.3425 10.1787 61.7165 9.87231 62.2266 9.87231C62.3626 9.87231 62.4986 9.90636 62.5666 9.90636V10.9617C62.4646 10.9276 62.2946 10.8936 62.1246 10.8936C61.5465 10.8936 61.2065 11.2681 61.2065 11.8808V14.3319H59.9824V9.9404Z" fill="white"/>
<path id="Vector_5" d="M65.3867 13.0723C65.3867 12.2893 65.9988 11.8127 67.0868 11.7446L68.1749 11.6766V11.3702C68.1749 10.9617 67.9029 10.7234 67.4268 10.7234C66.9848 10.7234 66.7128 10.9276 66.6448 11.268H65.5567C65.5907 10.417 66.3388 9.83826 67.4949 9.83826C68.6169 9.83826 69.365 10.417 69.365 11.3021V14.3319H68.2089V13.651H68.1749C67.9369 14.1276 67.3928 14.4 66.8488 14.4C65.9988 14.4 65.3867 13.8553 65.3867 13.0723ZM68.1749 12.6978V12.3914L67.2568 12.4595C66.8148 12.4936 66.5428 12.6978 66.5428 13.0042C66.5428 13.3446 66.8148 13.5489 67.2228 13.5489C67.7669 13.5149 68.1749 13.1744 68.1749 12.6978Z" fill="white"/>
<path id="Vector_6" d="M70.3867 12.1193C70.3867 10.7236 71.0668 9.87252 72.1888 9.87252C72.8349 9.87252 73.3109 10.2129 73.5149 10.6895H73.5489V8.40869H74.739V14.3321H73.5489V13.5832H73.5149C73.3109 14.0598 72.8009 14.4002 72.1548 14.4002C71.0668 14.4002 70.3867 13.5151 70.3867 12.1193ZM71.6108 12.1193C71.6108 12.9364 71.9848 13.4129 72.5969 13.4129C73.1749 13.4129 73.5829 12.9023 73.5829 12.1193C73.5829 11.3364 73.2089 10.8257 72.5969 10.8257C71.9848 10.8257 71.6108 11.3364 71.6108 12.1193Z" fill="white"/>
<path id="Vector_7" d="M78.48 14.3319H77.1199L75.5898 9.94043H76.8819L77.8 13.2766H77.834L78.752 9.94043H80.0101L78.48 14.3319Z" fill="white"/>
<path id="Vector_8" d="M84.6666 12.9702C84.5306 13.8212 83.7486 14.3999 82.6605 14.3999C81.3004 14.3999 80.4844 13.5489 80.4844 12.1191C80.4844 10.7233 81.3004 9.8042 82.5925 9.8042C83.8846 9.8042 84.6666 10.6553 84.6666 12.017V12.3914H81.6404V12.4595C81.6404 13.0723 82.0485 13.5148 82.6605 13.5148C83.1025 13.5148 83.4426 13.3106 83.5446 12.9702H84.6666ZM81.7085 11.6765H83.5786C83.5446 11.1319 83.2045 10.7233 82.6605 10.7233C82.1165 10.7233 81.7425 11.1319 81.7085 11.6765Z" fill="white"/>
<path id="Vector_9" d="M85.7559 9.9404H86.9119V10.7234H86.9459C87.1159 10.1787 87.49 9.87231 88 9.87231C88.136 9.87231 88.272 9.90636 88.34 9.90636V10.9617C88.238 10.9276 88.068 10.8936 87.898 10.8936C87.32 10.8936 86.9799 11.2681 86.9799 11.8808V14.3319H85.7899V9.9404H85.7559Z" fill="white"/>
<path id="Vector_10" d="M90.7181 8.91943V9.94071H91.5342V10.8258H90.7181V12.9365C90.7181 13.2769 90.8881 13.4471 91.2282 13.4471C91.3302 13.4471 91.4322 13.4471 91.5342 13.4131V14.2982C91.3982 14.3322 91.1942 14.3322 90.9561 14.3322C89.9361 14.3322 89.5281 13.9918 89.5281 13.1407V10.8258H88.916V9.94071H89.5281V8.91943H90.7181Z" fill="white"/>
<path id="Vector_11" d="M92.5898 8.81711C92.5898 8.47669 92.8619 8.20435 93.2359 8.20435C93.6099 8.20435 93.8819 8.47669 93.8819 8.81711C93.8819 9.15754 93.6099 9.42988 93.2359 9.42988C92.8619 9.42988 92.5898 9.15754 92.5898 8.81711ZM92.6238 9.94052H93.8139V14.332H92.6238V9.94052Z" fill="white"/>
<path id="Vector_12" d="M96.8053 9.83826C97.8934 9.83826 98.6074 10.3829 98.6414 11.234H97.5534C97.5194 10.8936 97.2473 10.6553 96.8053 10.6553C96.3973 10.6553 96.1253 10.8595 96.1253 11.1319C96.1253 11.3361 96.3293 11.5063 96.7033 11.5744L97.5534 11.7446C98.4374 11.9489 98.7774 12.2893 98.7774 12.9361C98.7774 13.7872 97.9954 14.3659 96.8393 14.3659C95.6832 14.3659 94.9352 13.7872 94.8672 12.9361H96.0233C96.0913 13.3106 96.3633 13.5149 96.8393 13.5149C97.2813 13.5149 97.5534 13.3446 97.5534 13.0383C97.5534 12.834 97.4173 12.6978 97.0093 12.5957L96.1933 12.4255C95.3772 12.2212 94.9352 11.8127 94.9352 11.1659C94.9692 10.3829 95.6832 9.83826 96.8053 9.83826Z" fill="white"/>
<path id="Vector_13" d="M103.778 12.9702C103.642 13.8212 102.86 14.3999 101.772 14.3999C100.412 14.3999 99.5957 13.5489 99.5957 12.1191C99.5957 10.7233 100.412 9.8042 101.704 9.8042C102.996 9.8042 103.778 10.6553 103.778 12.017V12.3914H100.786V12.4595C100.786 13.0723 101.194 13.5148 101.806 13.5148C102.248 13.5148 102.588 13.3106 102.69 12.9702H103.778ZM100.82 11.6765H102.69C102.656 11.1319 102.316 10.7233 101.772 10.7233C101.228 10.7233 100.854 11.1319 100.82 11.6765Z" fill="white"/>
<path id="Vector_14" d="M104.865 9.9404H106.021V10.7234H106.055C106.225 10.1787 106.599 9.87231 107.109 9.87231C107.245 9.87231 107.381 9.90636 107.449 9.90636V10.9617C107.347 10.9276 107.177 10.8936 107.007 10.8936C106.429 10.8936 106.089 11.2681 106.089 11.8808V14.3319H104.865V9.9404Z" fill="white"/>
<path id="Vector_15" d="M110.1 9.83826C111.188 9.83826 111.902 10.3829 111.936 11.234H110.848C110.814 10.8936 110.542 10.6553 110.1 10.6553C109.692 10.6553 109.42 10.8595 109.42 11.1319C109.42 11.3361 109.624 11.5063 109.998 11.5744L110.848 11.7446C111.732 11.9489 112.072 12.2893 112.072 12.9361C112.072 13.7872 111.29 14.3659 110.134 14.3659C108.978 14.3659 108.23 13.7872 108.162 12.9361H109.318C109.386 13.3106 109.658 13.5149 110.134 13.5149C110.576 13.5149 110.848 13.3446 110.848 13.0383C110.848 12.834 110.712 12.6978 110.304 12.5957L109.488 12.4255C108.672 12.2212 108.23 11.8127 108.23 11.1659C108.23 10.3829 108.978 9.83826 110.1 9.83826Z" fill="white"/>
</g>
</g>
<path id="Vector_16" d="M114.043 29.3106C113.805 29.7872 113.431 30.2298 113.023 30.5361C112.581 30.8425 112.105 31.0808 111.56 31.251C111.016 31.4213 110.472 31.4893 109.928 31.4893C109.384 31.4893 108.84 31.4213 108.296 31.251C107.752 31.0808 107.276 30.8085 106.834 30.5361C106.392 30.2298 106.052 29.8212 105.814 29.3106C105.576 28.834 105.372 28.2213 105.372 27.5404V21.7191C105.372 21.5489 105.44 21.3447 105.61 21.1064C105.78 20.9361 106.052 20.8 106.46 20.8C106.834 20.8 107.14 20.8681 107.31 21.0383C107.48 21.2085 107.548 21.4127 107.548 21.651V26.451C107.548 26.9276 107.616 27.3702 107.684 27.7447C107.752 28.1191 107.854 28.4255 108.058 28.7319C108.228 28.9702 108.5 29.2085 108.772 29.3447C109.078 29.4808 109.486 29.583 109.996 29.583C110.472 29.583 110.846 29.5149 111.152 29.4127C111.458 29.2766 111.696 29.0383 111.867 28.8C112.037 28.5617 112.173 28.2553 112.241 27.8127C112.309 27.4383 112.377 27.0298 112.377 26.5191V21.7191C112.377 21.5489 112.445 21.3447 112.615 21.1064C112.785 20.9361 113.057 20.8 113.465 20.8C113.839 20.8 114.145 20.8681 114.315 21.0383C114.485 21.2085 114.553 21.4127 114.553 21.651V27.5064C114.417 28.2213 114.315 28.834 114.043 29.3106ZM101.122 29.6851C100.68 30.1617 100.204 30.6042 99.5917 30.8425C98.9797 31.1489 98.2656 31.2851 97.4496 31.2851H94.3554C93.9814 31.2851 93.7433 31.217 93.6413 31.1149C93.5053 30.9787 93.4713 30.8085 93.4713 30.5702V21.7872C93.4713 21.5489 93.5393 21.3447 93.6073 21.2425C93.7433 21.1064 93.9814 21.0723 94.3214 21.0723H97.3476C98.1976 21.0723 98.9117 21.2085 99.5237 21.5149C100.136 21.8213 100.68 22.1957 101.054 22.7404C101.496 23.217 101.734 23.8298 101.972 24.5787C102.346 25.9064 102.414 26.417 101.972 27.9149C101.768 28.5957 101.496 29.2085 101.122 29.6851ZM100.034 25.0553C99.8977 24.5787 99.7957 24.1361 99.5577 23.7617C99.3197 23.3872 99.0137 23.1489 98.5717 22.9787C98.1976 22.8085 97.6536 22.7404 97.0416 22.7404H95.5795V29.5489H97.4496C98.3676 29.5489 99.0137 29.1744 99.4557 28.5276C100.646 26.8255 99.9657 24.8851 100.034 25.0553ZM90.4111 31.1489C90.2751 31.2851 90.2411 31.3191 90.0371 31.3872C89.9011 31.4553 89.7311 31.4553 89.5611 31.4553C89.1871 31.4553 88.949 31.3872 88.847 31.217C88.677 31.0468 88.541 30.8425 88.473 30.6723L87.691 28.6638H84.3587L83.6447 30.5361C83.5087 30.7744 83.4067 31.0127 83.2027 31.1489C83.0327 31.3191 82.7606 31.3872 82.4206 31.3872C82.0466 31.3872 81.8086 31.251 81.6386 31.0808C81.4686 30.9106 81.4006 30.6042 81.5706 30.0936L84.9708 21.4468C85.0388 21.2766 85.1408 21.1404 85.3448 20.9702C85.5148 20.834 85.7868 20.8 86.0589 20.8C86.3649 20.8 86.6029 20.8681 86.7729 20.9702C86.9429 21.1064 87.0789 21.2766 87.1469 21.4468L90.5471 30.0936C90.6151 30.2638 90.6152 30.4681 90.6152 30.6383C90.5471 30.9106 90.4791 31.0127 90.4111 31.1489ZM86.0589 24.034L84.7668 26.8255H87.3169L86.0589 24.034ZM78.6804 31.0127C78.4424 31.251 78.2044 31.4553 77.9663 31.4553C77.7283 31.4553 77.4903 31.3191 77.2523 31.0808L73.002 27.9149V30.7064C73.002 30.8766 72.934 31.0808 72.764 31.183C72.594 31.3191 72.322 31.4213 71.914 31.4213C71.5399 31.4213 71.2339 31.3532 71.0639 31.183C70.8939 31.0468 70.8259 30.8766 70.8259 30.7064V21.7872C70.8259 21.617 70.8939 21.4127 71.0639 21.1744C71.2339 21.0042 71.5059 20.8681 71.914 20.8681C72.288 20.8681 72.594 20.9361 72.696 21.1064C72.866 21.2766 72.934 21.4808 72.934 21.7191V25.0213L76.7423 21.2766C77.0483 20.9702 77.2863 20.834 77.5243 20.8C77.7623 20.7319 78.0003 20.9361 78.3064 21.2425C78.5444 21.4808 78.6124 21.7191 78.5444 21.9574C78.4764 22.1957 78.3064 22.434 78.0683 22.6383L73.9881 26.417L78.2384 29.2766C78.4084 29.4468 78.5444 29.583 78.6804 29.7532C78.8164 29.8893 78.8504 29.9915 78.9184 30.1957C78.9864 30.3319 78.9864 30.434 78.9184 30.6383C78.9524 30.7064 78.8844 30.8425 78.6804 31.0127ZM67.6297 30.1617C67.4597 30.4 67.1877 30.6042 66.9156 30.8425C66.6096 31.0808 66.2016 31.2851 65.7596 31.3872C65.3175 31.5574 64.7735 31.6255 64.2295 31.6255C63.3794 31.6255 62.6654 31.4893 61.9173 31.183C61.2033 30.8766 60.5912 30.5021 60.0812 29.9574C59.6052 29.4127 59.1631 28.8 58.8571 28.017C57.701 25.0213 59.6392 22.6723 60.0132 22.2978C60.4892 21.7532 61.0333 21.3787 61.7133 21.0723C62.3933 20.7659 63.0394 20.6298 63.8554 20.6298C64.3995 20.6298 64.8755 20.6978 65.3175 20.8C65.7596 20.9361 66.1676 21.1064 66.4736 21.2766C66.7796 21.4468 67.0856 21.7191 67.2557 21.9574C67.4257 22.1957 67.5617 22.4 67.5617 22.5702C67.5617 22.7064 67.5617 22.8085 67.5617 22.9447C67.4937 23.0808 67.4937 23.1149 67.4937 23.183C67.4257 23.251 67.3577 23.3191 67.3237 23.3532C67.2557 23.4213 67.1536 23.4893 67.0176 23.5234C66.8476 23.5915 66.5756 23.5915 66.4056 23.5234C66.2356 23.3872 66.0316 23.2851 65.7936 23.1489C65.5555 23.0127 65.3175 22.8425 65.0115 22.7064C64.7055 22.5702 64.3315 22.5361 63.8554 22.5361C63.3794 22.5361 62.8694 22.6723 62.4614 22.9106C62.0533 23.1489 61.7473 23.4553 61.4753 23.8298C61.2373 24.2042 60.9993 24.6808 60.8633 25.1574C60.4892 26.451 61.0333 27.6425 61.5773 28.3234C61.8833 28.7659 62.2573 29.0383 62.7334 29.3106C63.1754 29.5489 63.7194 29.6851 64.2975 29.6851C64.6035 29.6851 64.8415 29.617 65.0795 29.5489C65.3175 29.4808 65.5215 29.4127 65.6916 29.3106C65.8616 29.1744 65.9976 29.1404 66.1676 29.0042C66.3036 28.8681 66.4736 28.834 66.6096 28.6978C66.7456 28.5617 66.8476 28.5276 67.0516 28.5276C67.1877 28.5276 67.3577 28.5276 67.4257 28.5957C67.6637 28.7319 67.8677 28.834 67.9017 29.0383C67.9697 29.2085 68.0377 29.4127 68.0377 29.583C67.8677 29.7532 67.7657 29.9234 67.6297 30.1617ZM54.2668 31.4553C53.8928 31.4553 53.5868 31.3872 53.4848 31.217C53.3148 31.0468 53.2468 30.7744 53.2468 30.434V21.9574C53.2468 21.2425 53.6208 20.9361 54.2668 20.9361C54.6409 20.9361 54.8789 21.0042 55.0489 21.1744C55.2189 21.3447 55.3549 21.617 55.3549 21.9574V30.4C55.3549 30.7744 55.2869 31.0127 55.1169 31.183C54.9469 31.3191 54.6409 31.4553 54.2668 31.4553ZM49.5405 31.2851H45.3583C44.9842 31.2851 44.6782 31.1489 44.5082 30.9106C44.3382 30.6723 44.2022 30.434 44.2022 30.0595V21.7191C44.2022 21.4808 44.3382 21.2425 44.5082 21.1064C44.6782 20.9702 44.9842 20.8681 45.2222 20.8681C45.5283 20.8681 45.7663 20.9361 46.0043 21.1064C46.1743 21.2425 46.3103 21.4808 46.3103 21.7191V29.3106H49.5405C49.7785 29.3106 49.9826 29.3787 50.1526 29.5489C50.3226 29.6851 50.3906 29.9234 50.3906 30.2638C50.3906 30.6042 50.2546 30.8766 50.0846 30.9787C49.9485 31.217 49.7785 31.2851 49.5405 31.2851ZM40.972 30.1617C40.802 30.4 40.5299 30.6042 40.2579 30.8425C39.9519 31.0808 39.5439 31.2851 39.1019 31.3872C38.6598 31.5574 38.1158 31.6255 37.5718 31.6255C36.7217 31.6255 36.0077 31.4893 35.2596 31.183C34.5456 30.8766 33.9335 30.5021 33.4235 29.9574C32.9475 29.4127 32.5054 28.8 32.1994 28.017C31.0433 25.0213 32.9815 22.6723 33.3555 22.2978C33.8315 21.7532 34.3756 21.3787 35.0556 21.0723C35.7356 20.7659 36.3817 20.6298 37.1977 20.6298C37.7418 20.6298 38.2178 20.6978 38.6598 20.8C39.1019 20.9361 39.5099 21.1064 39.8159 21.2766C40.1219 21.4468 40.4279 21.7191 40.598 21.9574C40.768 22.1957 40.904 22.4 40.904 22.5702C40.904 22.7064 40.904 22.8085 40.904 22.9447C40.836 23.0808 40.836 23.1149 40.836 23.183C40.768 23.251 40.7 23.3191 40.666 23.3532C40.598 23.4213 40.4959 23.4893 40.3599 23.5234C40.1899 23.5915 39.9179 23.5915 39.7479 23.5234C39.5779 23.3872 39.3739 23.2851 39.1359 23.1489C38.8978 23.0127 38.6598 22.8425 38.3538 22.7064C38.0478 22.5702 37.6738 22.5361 37.1977 22.5361C36.7217 22.5361 36.2117 22.6723 35.8036 22.9106C35.3956 23.1489 35.0896 23.4553 34.8176 23.8298C34.5796 24.2042 34.3416 24.6808 34.2055 25.1574C33.7295 26.451 34.2735 27.6425 34.8176 28.3234C35.1236 28.7659 35.4976 29.0383 35.9737 29.3106C36.4157 29.5489 36.9597 29.6851 37.5378 29.6851C37.8438 29.6851 38.0818 29.617 38.3198 29.5489C38.5578 29.4808 38.7618 29.4127 38.9318 29.3106C39.1019 29.1744 39.2379 29.1404 39.4079 29.0042C39.5439 28.8681 39.7139 28.834 39.8499 28.6978C39.9859 28.5617 40.0879 28.5276 40.2919 28.5276C40.4279 28.5276 40.5299 28.5276 40.666 28.5957C40.904 28.7319 41.108 28.834 41.142 29.0383C41.21 29.2085 41.278 29.4127 41.278 29.583C41.21 29.7532 41.074 29.9234 40.972 30.1617Z" fill="#3C4347"/>
</g>
</svg>
