<svg width="35" height="32" viewBox="0 0 38 36" fill="none" xmlns="http://www.w3.org/2000/svg">
<g id="logo">
<path id="Vector_17" d="M39.3741 9.77019L30.3295 9.0553L29.8535 14.8766L39.3741 9.77019Z" fill="#70AC43"/>
<path id="Vector_18" d="M24.618 14.8766L27.2362 12.2894L14.8594 0V14.8766H18.4976H24.618Z" fill="#F26D25"/>
<path id="Vector_19" d="M30.3296 9.05525L27.2354 12.2893L24.6172 14.8765H29.7515H29.8535L30.3296 9.05525L30.4316 8.95312L30.3296 9.05525Z" fill="#037DAD"/>
<path id="Vector_20" d="M7.92383 31.9999L14.8603 29.8892L12.2421 27.2679L7.92383 31.9999Z" fill="#72AF44"/>
<path id="Vector_21" d="M29.7519 14.8768H24.6176H18.4972L17.0691 15.6939L6.73243 21.6513L0 14.8768L12.2408 27.2683L14.859 29.8896L29.8539 14.8768H29.7519Z" fill="#1AA5DE"/>
<path id="Vector_22" d="M14.8589 14.8768H0L6.73243 21.6513L17.0691 15.6939L18.4972 14.8768H14.8589Z" fill="#4CBDEC"/>
</g>
</svg>
